<svg width="1196" height="113" viewBox="0 0 1196 113" fill="none" xmlns="http://www.w3.org/2000/svg">
<path d="M25.275 77.2C20.975 77.2 17.2 76.05 13.95 73.75C10.7 71.4 8.175 68.2 6.375 64.15C4.625 60.05 3.75 55.45 3.75 50.35C3.75 45.25 4.625 40.675 6.375 36.625C8.175 32.525 10.7 29.325 13.95 27.025C17.2 24.675 20.975 23.5 25.275 23.5C29.575 23.5 33.35 24.675 36.6 27.025C39.85 29.325 42.35 32.525 44.1 36.625C45.9 40.675 46.8 45.25 46.8 50.35C46.8 55.45 45.9 60.05 44.1 64.15C42.35 68.2 39.85 71.4 36.6 73.75C33.35 76.05 29.575 77.2 25.275 77.2ZM25.275 67.975C27.675 67.975 29.75 67.225 31.5 65.725C33.3 64.175 34.65 62.075 35.55 59.425C36.5 56.725 36.975 53.7 36.975 50.35C36.975 45.15 35.925 40.925 33.825 37.675C31.725 34.375 28.875 32.725 25.275 32.725C21.725 32.725 18.9 34.375 16.8 37.675C14.7 40.975 13.65 45.2 13.65 50.35C13.65 53.7 14.1 56.725 15 59.425C15.95 62.075 17.3 64.175 19.05 65.725C20.85 67.225 22.925 67.975 25.275 67.975ZM71.9854 77.2C67.6354 77.2 63.7854 76.05 60.4354 73.75C57.1354 71.45 54.8604 68.1 53.6104 63.7L62.9104 60.025C63.5104 62.475 64.5854 64.375 66.1354 65.725C67.6854 67.025 69.6354 67.675 71.9854 67.675C74.1354 67.675 75.9854 67.025 77.5354 65.725C79.1354 64.425 79.9354 62.775 79.9354 60.775C79.9354 58.625 79.0854 56.925 77.3854 55.675C75.7354 54.375 73.4854 53.725 70.6354 53.725H66.2104V44.8H70.2604C72.4604 44.8 74.3104 44.25 75.8104 43.15C77.3604 42.05 78.1354 40.45 78.1354 38.35C78.1354 36.65 77.5104 35.25 76.2604 34.15C75.0104 33.05 73.4104 32.5 71.4604 32.5C69.4104 32.5 67.7604 33.05 66.5104 34.15C65.2604 35.25 64.3854 36.625 63.8854 38.275L54.9604 34.6C56.0104 31.6 57.9354 29 60.7354 26.8C63.5854 24.6 67.1854 23.5 71.5354 23.5C74.7354 23.5 77.5854 24.1 80.0854 25.3C82.6354 26.5 84.6104 28.15 86.0104 30.25C87.4104 32.3 88.1104 34.625 88.1104 37.225C88.1104 39.975 87.4604 42.325 86.1604 44.275C84.9104 46.225 83.3854 47.65 81.5854 48.55V49.15C84.0854 50.15 86.1104 51.725 87.6604 53.875C89.2104 56.025 89.9854 58.625 89.9854 61.675C89.9854 64.625 89.2354 67.275 87.7354 69.625C86.2354 71.975 84.1104 73.825 81.3604 75.175C78.6604 76.525 75.5354 77.2 71.9854 77.2ZM132.384 60.025H119.559V72.775H110.859V60.025H98.1088V51.325H110.859V38.575H119.559V51.325H132.384V60.025Z" fill="#5F5F5F"/>
<path d="M366.125 37.525L358.4 43.15L353.45 35.575L368.525 24.7H375.95V76H366.125V37.525ZM407.795 77.2C403.495 77.2 399.72 76.05 396.47 73.75C393.22 71.4 390.695 68.2 388.895 64.15C387.145 60.05 386.27 55.45 386.27 50.35C386.27 45.25 387.145 40.675 388.895 36.625C390.695 32.525 393.22 29.325 396.47 27.025C399.72 24.675 403.495 23.5 407.795 23.5C412.095 23.5 415.87 24.675 419.12 27.025C422.37 29.325 424.87 32.525 426.62 36.625C428.42 40.675 429.32 45.25 429.32 50.35C429.32 55.45 428.42 60.05 426.62 64.15C424.87 68.2 422.37 71.4 419.12 73.75C415.87 76.05 412.095 77.2 407.795 77.2ZM407.795 67.975C410.195 67.975 412.27 67.225 414.02 65.725C415.82 64.175 417.17 62.075 418.07 59.425C419.02 56.725 419.495 53.7 419.495 50.35C419.495 45.15 418.445 40.925 416.345 37.675C414.245 34.375 411.395 32.725 407.795 32.725C404.245 32.725 401.42 34.375 399.32 37.675C397.22 40.975 396.17 45.2 396.17 50.35C396.17 53.7 396.62 56.725 397.52 59.425C398.47 62.075 399.82 64.175 401.57 65.725C403.37 67.225 405.445 67.975 407.795 67.975ZM472.13 60.025H459.305V72.775H450.605V60.025H437.855V51.325H450.605V38.575H459.305V51.325H472.13V60.025Z" fill="#5F5F5F"/>
<path d="M728.125 33.525L720.4 39.15L715.45 31.575L730.525 20.7H737.95V72H728.125V33.525ZM750.67 18.3H760.795V41.325H761.395L781.045 18.3H793.27V18.9L773.845 41.1L795.295 71.4V72H782.92L766.87 49.125L760.795 56.25V72H750.67V18.3ZM834.716 56.025H821.891V68.775H813.191V56.025H800.441V47.325H813.191V34.575H821.891V47.325H834.716V56.025Z" fill="#5F5F5F"/>
<path d="M1049.12 66.86C1050.44 65.54 1052.98 63 1056.74 59.24C1060.54 55.44 1062.98 52.96 1064.06 51.8C1065.5 50.24 1066.48 48.94 1067 47.9C1067.56 46.86 1067.84 45.68 1067.84 44.36C1067.84 42.96 1067.32 41.78 1066.28 40.82C1065.24 39.86 1063.86 39.38 1062.14 39.38C1060.46 39.38 1059.1 39.86 1058.06 40.82C1057.02 41.78 1056.28 42.98 1055.84 44.42L1048.76 41.48C1049.2 39.92 1050 38.42 1051.16 36.98C1052.36 35.5 1053.9 34.3 1055.78 33.38C1057.66 32.46 1059.82 32 1062.26 32C1064.98 32 1067.36 32.54 1069.4 33.62C1071.44 34.66 1073.02 36.1 1074.14 37.94C1075.26 39.74 1075.82 41.76 1075.82 44C1075.82 48.44 1073.66 52.78 1069.34 57.02C1067.58 58.74 1064.32 61.98 1059.56 66.74L1059.74 67.1H1076.36V74H1049.12V66.86ZM1099.56 74.96C1096.12 74.96 1093.1 74.04 1090.5 72.2C1087.9 70.32 1085.88 67.76 1084.44 64.52C1083.04 61.24 1082.34 57.56 1082.34 53.48C1082.34 49.4 1083.04 45.74 1084.44 42.5C1085.88 39.22 1087.9 36.66 1090.5 34.82C1093.1 32.94 1096.12 32 1099.56 32C1103 32 1106.02 32.94 1108.62 34.82C1111.22 36.66 1113.22 39.22 1114.62 42.5C1116.06 45.74 1116.78 49.4 1116.78 53.48C1116.78 57.56 1116.06 61.24 1114.62 64.52C1113.22 67.76 1111.22 70.32 1108.62 72.2C1106.02 74.04 1103 74.96 1099.56 74.96ZM1099.56 67.58C1101.48 67.58 1103.14 66.98 1104.54 65.78C1105.98 64.54 1107.06 62.86 1107.78 60.74C1108.54 58.58 1108.92 56.16 1108.92 53.48C1108.92 49.32 1108.08 45.94 1106.4 43.34C1104.72 40.7 1102.44 39.38 1099.56 39.38C1096.72 39.38 1094.46 40.7 1092.78 43.34C1091.1 45.98 1090.26 49.36 1090.26 53.48C1090.26 56.16 1090.62 58.58 1091.34 60.74C1092.1 62.86 1093.18 64.54 1094.58 65.78C1096.02 66.98 1097.68 67.58 1099.56 67.58ZM1140.05 74.96C1136.61 74.96 1133.59 74.04 1130.99 72.2C1128.39 70.32 1126.37 67.76 1124.93 64.52C1123.53 61.24 1122.83 57.56 1122.83 53.48C1122.83 49.4 1123.53 45.74 1124.93 42.5C1126.37 39.22 1128.39 36.66 1130.99 34.82C1133.59 32.94 1136.61 32 1140.05 32C1143.49 32 1146.51 32.94 1149.11 34.82C1151.71 36.66 1153.71 39.22 1155.11 42.5C1156.55 45.74 1157.27 49.4 1157.27 53.48C1157.27 57.56 1156.55 61.24 1155.11 64.52C1153.71 67.76 1151.71 70.32 1149.11 72.2C1146.51 74.04 1143.49 74.96 1140.05 74.96ZM1140.05 67.58C1141.97 67.58 1143.63 66.98 1145.03 65.78C1146.47 64.54 1147.55 62.86 1148.27 60.74C1149.03 58.58 1149.41 56.16 1149.41 53.48C1149.41 49.32 1148.57 45.94 1146.89 43.34C1145.21 40.7 1142.93 39.38 1140.05 39.38C1137.21 39.38 1134.95 40.7 1133.27 43.34C1131.59 45.98 1130.75 49.36 1130.75 53.48C1130.75 56.16 1131.11 58.58 1131.83 60.74C1132.59 62.86 1133.67 64.54 1135.07 65.78C1136.51 66.98 1138.17 67.58 1140.05 67.58ZM1191.52 61.22H1181.26V71.42H1174.3V61.22H1164.1V54.26H1174.3V44.06H1181.26V54.26H1191.52V61.22Z" fill="#5F5F5F"/>
</svg>
